<svg xmlns="http://www.w3.org/2000/svg" xmlns:xlink="http://www.w3.org/1999/xlink" id="Layer_1" x="0px" y="0px" viewBox="0 0 531.8 545.7" style="enable-background:new 0 0 531.8 545.7;" xml:space="preserve">
<style type="text/css">
	.st0{fill:#FFFFFF;}
</style>
<g id="Group_917" transform="translate(-346.456 -13.431)">
	<g id="Group_760">
		<path id="Path_181" class="st0" d="M671.6,526.2c-28.9,0.1-57.5-6-83.9-17.8c-3.4-1.5-4.9-5.4-3.4-8.8c1.5-3.4,5.4-4.9,8.8-3.4    c97.6,43.4,211.8-0.5,255.2-98.1c43.4-97.6-0.5-211.8-98.1-255.2c-68.4-30.4-148.3-18.6-205,30.3c-2.8,2.3-7,1.9-9.4-0.9    c-2.3-2.7-2-6.8,0.7-9.2c86.4-74.6,216.9-65,291.5,21.4s65,216.9-21.4,291.5C769.1,508.4,721.2,526.2,671.6,526.2L671.6,526.2z"></path>
	</g>
	<g id="Group_761">
		<path id="Path_182" class="st0" d="M699,297.6c7.4-0.1,14.8,1.2,21.7,3.8c6.4,2.4,12.3,6.1,17.3,10.9c4.9,4.8,8.8,10.5,11.3,16.8    c5.6,14.4,5.4,30.4-0.5,44.6c-2.9,6.7-7.3,12.7-12.7,17.7c-5.7,5-12.3,8.9-19.4,11.4c-7.8,2.8-16,4.2-24.3,4.1    c-11.3,0.2-22.6-2.5-32.6-7.7c-9.2-4.7-16.8-12.1-21.9-21l18-18.7c4.3,6,9.9,11,16.4,14.5c6.2,3.5,13.2,5.4,20.3,5.4    c7.6,0.3,15.1-2.4,20.7-7.6c11.1-10.1,12-27.3,1.9-38.4c-5.3-5.8-12.8-9.1-20.7-8.9c-5,0-9.9,1.2-14.4,3.6    c-4.3,2.2-8,5.5-10.7,9.6h-27.3c0.2-1.8,0.5-3.5,0.9-5.3c0.6-3,1.4-6.9,2.3-11.7c0.9-4.8,1.9-10,3-15.9c1.1-5.9,2.2-11.8,3.5-17.9    c2.8-14.3,5.9-30.4,9.4-48.2h81.8v28.5H684l-6.8,37.2c2.3-2.3,5.2-4,8.3-4.9C689.9,298.2,694.4,297.5,699,297.6z"></path>
	</g>
	<g id="Group_770">
		<g id="Group_762">
			<path id="Path_183" class="st0" d="M392.7,140.5c12.6,7,32.5,12.1,45.1,22.7c3.9-11.8,8.8-23.3,14.7-34.3     c6.2-9.3,11.6-12.9,13.2-17.3c4.5-12.8-3.6-23.1-2.8-39.8c2.3-47.5,30.5-54.5,29.2-57.4c-1.9-4-43.2,4.9-77.1,35.4     c-19.2,16.2-31.1,39.4-32.9,64.5C381.8,122.4,381.4,134.2,392.7,140.5"></path>
		</g>
		<g id="Group_763">
			<path id="Path_184" class="st0" d="M480.6,116.1c-2.1-0.8-12.9,8.1-21.5,24.2c-4.4,9.7-8.2,19.7-11.4,29.9     c8.1,7.4,15.3,15.7,21.3,24.8c8.3,13.5,15.3,27.7,20.8,42.5c4.2-5.7,14.7-13.5,17.4-23.2c3.9-15.2,1.9-31.2-5.6-45     c-9.9-20.8-13.7-20.5-19.2-39.7C480.4,122.2,482.8,116.9,480.6,116.1"></path>
		</g>
		<g id="Group_764">
			<path id="Path_185" class="st0" d="M378.3,196.2c1.7,10.6,5.9,20.6,12.2,29.2c5,8.5,13.3,14.6,23,16.7     c21.5,5.2,42.5,12.7,62.4,22.4c1.4-6,3.6-11.7,6.7-17c-8.2-24.6-21.7-47.1-39.7-65.9c-15.2-13.2-33-23.1-52.3-29     c-9.6-3.4-12.5-9.5-14.8-8.2c-2.7,1.5,2.7,10.4,2.3,20.6C376.8,175.3,376.9,185.8,378.3,196.2"></path>
		</g>
		<g id="Group_765">
			<path id="Path_186" class="st0" d="M493.9,249.9c-4,6.3-6.6,13.3-7.5,20.7c9,7.4,16.8,16.2,23,26.1c7.7,12,12.9,25.4,15.4,39.4     c6.2-8.2,14.6-7.4,22.3-16.7c11.8-14.2,8.5-33.9,3.3-45.9c-7-13.4-14.7-26.4-23.2-39c-5-8.8-5.1-17.8-8.2-17.8     c-1.9,0-2.5,4.4-6.9,12.3C507.2,237.7,499.9,241.4,493.9,249.9"></path>
		</g>
		<g id="Group_766">
			<path id="Path_187" class="st0" d="M434.7,337.2c14.7,6.8,30,12.1,45.7,15.8c9.6,2,18.9,5.3,27.6,9.9c1.8-6.1,4.4-11.9,7.7-17.3     c-2.6-17.7-9.1-34.6-19.2-49.4c-20.8-28.2-59.9-36.9-88.6-44.8c-17.6-4.9-17.1-8.1-18.6-6.5c-2.2,2.5,5,7.9,8.6,22.3     c2,13.4,5.8,26.5,11.2,39C414.1,318.9,423.1,329.8,434.7,337.2"></path>
		</g>
		<g id="Group_767">
			<path id="Path_188" class="st0" d="M572.1,335.4c-2.6-7.8-4.9-20.5-8.1-20.7c-2.2-0.1-1,3.9-7.4,11c-6.5,6.5-14.1,11.9-22.4,16     c-6,3.8-11.4,10.8-16.9,26.7c10.6,7.9,19.8,17.7,26.9,28.9c9.1,16.1,13.6,34.3,13.2,52.7c-1.1,23.9-4,26.3-2.8,27.6     c18.8-23.7,29.9-52.7,31.9-82.9C587.7,368.3,578.1,353.9,572.1,335.4"></path>
		</g>
		<g id="Group_768">
			<path id="Path_189" class="st0" d="M505.4,373.7c-16.2-10-37-13.5-52.1-17.9c-12.5-3.7-27-10.2-28.2-8.5     c-1.8,2.8,11.6,11.8,22.2,29.4c16.1,24.7,23.8,53.9,21.8,83.3c-3.6,60.2-54.7,96.5-52,98.9c2.7,2.4,44.5-7.8,72.9-22.9     c15.8-7.5,29.9-18.1,41.5-31.1c6.1-8.8,22.5-34,11.3-80.6C538.1,402.8,524.5,384.4,505.4,373.7"></path>
		</g>
		<g id="Group_769">
			<path id="Path_190" class="st0" d="M381.9,448.1c4.8,12.4,6.2,25.8,4.2,39c-0.4,2.7-1.8,4-2.2-0.9c-1.8-16.2-7.6-31.7-16.8-45.2     c-1.4-3-3-1.5-3.3-0.7c-3.6,9.2-14,13.7-16,30.8c-1.5,10.4-1.8,21-0.7,31.4c1.4,13,4.3,25.8,8.9,38.1c1.3,3.3,1.9,4.3,4.8,4.7     c6.8,1.5,13,4.7,18.1,9.4c1.9,1.8,4.6,3.1,6.7,0.5c10.2-14.7,15.2-32.3,14.4-50.2c0.4-21.6-5-42.9-15.5-61.8     C382.5,440,378.8,440.5,381.9,448.1"></path>
		</g>
	</g>
</g>
</svg>