<svg xmlns="http://www.w3.org/2000/svg" width="59.831" height="61.39" viewBox="0 0 59.831 61.39"><g id="Component_34_1" data-name="Component 34 &#x2013; 1" transform="translate(0 0)"><g id="Group_712" data-name="Group 712" transform="translate(-13.777 -13.431)"><path id="Path_141" data-name="Path 141" d="M50.358,71.112a23.086,23.086,0,0,1-9.442-2,.75.75,0,1,1,.609-1.371A21.754,21.754,0,1,0,36.148,31.4a.75.75,0,1,1-.98-1.135,23.249,23.249,0,1,1,15.19,40.85Z" fill="#fff"></path></g><g id="Group_713" data-name="Group 713" transform="translate(-13.777 -13.431)"><path id="Path_142" data-name="Path 142" d="M60.461,51.518V54.7H49.784V51.518h3.734V43.549a2.842,2.842,0,0,1-.749.643,10.244,10.244,0,0,1-1.118.619,7.878,7.878,0,0,1-1.249.473,4.222,4.222,0,0,1-1.144.185V42.181a2.989,2.989,0,0,0,1.157-.3,9.93,9.93,0,0,0,1.341-.724,11,11,0,0,0,1.144-.828,2.8,2.8,0,0,0,.618-.644h3.6V51.518Z" fill="#fff"></path></g><g id="Group_722" data-name="Group 722" transform="translate(-13.777 -13.431)"><g id="Group_714" data-name="Group 714"><path id="Path_143" data-name="Path 143" d="M18.971,27.721c1.417.792,3.655,1.357,5.073,2.555a24.6,24.6,0,0,1,1.65-3.863c.7-1.049,1.308-1.453,1.482-1.941.511-1.439-.407-2.595-.316-4.478.261-5.346,3.435-6.136,3.28-6.463-.213-.448-4.864.556-8.68,3.982a10.471,10.471,0,0,0-3.7,7.255c-.015.914-.052,2.247,1.212,2.953" fill="#fff"></path></g><g id="Group_715" data-name="Group 715"><path id="Path_144" data-name="Path 144" d="M28.866,24.974c-.238-.094-1.451.907-2.42,2.721a31.038,31.038,0,0,0-1.282,3.367,15.2,15.2,0,0,1,2.4,2.793,27.569,27.569,0,0,1,2.343,4.785c.474-.638,1.66-1.52,1.964-2.611a7.028,7.028,0,0,0-.627-5.065c-1.11-2.34-1.538-2.307-2.16-4.463-.244-.843.034-1.429-.217-1.527" fill="#fff"></path></g><g id="Group_716" data-name="Group 716"><path id="Path_145" data-name="Path 145" d="M17.354,33.987a7.593,7.593,0,0,0,1.369,3.284,3.95,3.95,0,0,0,2.588,1.875,34.831,34.831,0,0,1,7.023,2.523,7.063,7.063,0,0,1,.75-1.912,19.67,19.67,0,0,0-4.469-7.413,16.243,16.243,0,0,0-5.883-3.264c-1.082-.384-1.409-1.071-1.67-.918-.3.174.308,1.169.259,2.313a14.744,14.744,0,0,0,.033,3.512" fill="#fff"></path></g><g id="Group_717" data-name="Group 717"><path id="Path_146" data-name="Path 146" d="M30.366,40.034a5.546,5.546,0,0,0-.843,2.332A12.021,12.021,0,0,1,32.106,45.3a12.352,12.352,0,0,1,1.737,4.436c.7-.923,1.64-.837,2.506-1.881,1.331-1.6.951-3.809.369-5.164A43.32,43.32,0,0,0,34.1,38.308c-.565-.991-.57-2-.924-2-.219,0-.281.5-.78,1.385-.545.97-1.365,1.376-2.035,2.34" fill="#fff"></path></g><g id="Group_718" data-name="Group 718"><path id="Path_147" data-name="Path 147" d="M23.7,49.856a27.118,27.118,0,0,0,5.145,1.774,11.913,11.913,0,0,1,3.106,1.116,8.721,8.721,0,0,1,.866-1.952,13.241,13.241,0,0,0-2.16-5.558c-2.334-3.176-6.735-4.152-9.966-5.044-1.985-.549-1.925-.916-2.09-.73-.248.278.567.894.965,2.509a17.461,17.461,0,0,0,1.258,4.385,7.285,7.285,0,0,0,2.876,3.5" fill="#fff"></path></g><g id="Group_719" data-name="Group 719"><path id="Path_148" data-name="Path 148" d="M39.163,49.653c-.286-.882-.555-2.309-.91-2.324-.248-.01-.11.436-.828,1.237a9.464,9.464,0,0,1-2.522,1.8c-.679.431-1.279,1.211-1.9,3.008a12.349,12.349,0,0,1,3.029,3.25,11.524,11.524,0,0,1,1.482,5.932c-.126,2.691-.449,2.962-.319,3.106a16.751,16.751,0,0,0,3.589-9.327c.132-2.988-.946-4.6-1.621-6.678" fill="#fff"></path></g><g id="Group_720" data-name="Group 720"><path id="Path_149" data-name="Path 149" d="M31.662,53.96c-1.826-1.124-4.159-1.517-5.861-2.019-1.41-.415-3.041-1.152-3.17-.959-.208.313,1.3,1.329,2.5,3.305a15.215,15.215,0,0,1,2.451,9.372c-.4,6.77-6.152,10.857-5.851,11.123s5.008-.882,8.2-2.578a14.612,14.612,0,0,0,4.668-3.5c.682-.985,2.534-3.828,1.27-9.068a8.666,8.666,0,0,0-4.207-5.679" fill="#fff"></path></g><g id="Group_721" data-name="Group 721"><path id="Path_150" data-name="Path 150" d="M17.765,62.332a8.489,8.489,0,0,1,.469,4.384c-.043.3-.2.449-.246-.1A11.2,11.2,0,0,0,16.1,61.533c-.16-.333-.334-.169-.372-.074-.4,1.031-1.575,1.542-1.8,3.47a14.05,14.05,0,0,0-.074,3.538,17.576,17.576,0,0,0,1,4.29c.142.366.216.482.539.534a4.388,4.388,0,0,1,2.041,1.057c.211.208.515.347.753.061a9.164,9.164,0,0,0,1.623-5.647,13.732,13.732,0,0,0-1.746-6.954c-.235-.39-.648-.337-.3.524" fill="#fff"></path></g></g></g></svg>