<svg xmlns="http://www.w3.org/2000/svg" width="59.832" height="61.39" viewBox="0 0 59.832 61.39"><g id="Group_918" data-name="Group 918" transform="translate(-97.222 -13.431)"><g id="Group_724" data-name="Group 724"><path id="Path_151" data-name="Path 151" d="M133.8,71.112a23.087,23.087,0,0,1-9.443-2,.75.75,0,0,1,.609-1.371A21.754,21.754,0,1,0,119.593,31.4a.75.75,0,0,1-.98-1.135A23.25,23.25,0,1,1,133.8,71.112Z" fill="#fff"></path></g><g id="Group_725" data-name="Group 725"><path id="Path_152" data-name="Path 152" d="M131.02,54.7a11.4,11.4,0,0,1,.184-2.143,5.78,5.78,0,0,1,.644-1.775,5.926,5.926,0,0,1,1.262-1.525,11.4,11.4,0,0,1,2.038-1.4q1.079-.576,1.907-1.012a15.3,15.3,0,0,0,1.381-.8,3.415,3.415,0,0,0,.841-.749,1.42,1.42,0,0,0,.29-.882,1.762,1.762,0,0,0-.631-1.354,2.638,2.638,0,0,0-1.815-.566,3.751,3.751,0,0,0-1.157.171,4.375,4.375,0,0,0-.986.461,5.482,5.482,0,0,0-.842.645,6.806,6.806,0,0,0-.7.749l-2.262-2.6a5.962,5.962,0,0,1,.973-.8,9.273,9.273,0,0,1,1.486-.815,10.952,10.952,0,0,1,1.894-.632,9.507,9.507,0,0,1,2.222-.249,8.029,8.029,0,0,1,2.394.328,5.246,5.246,0,0,1,1.774.921,3.948,3.948,0,0,1,1.1,1.42,4.263,4.263,0,0,1,.381,1.8,3.712,3.712,0,0,1-.342,1.63,4.913,4.913,0,0,1-.867,1.262,6.607,6.607,0,0,1-1.144.96c-.412.273-.811.513-1.2.724q-.473.262-1.078.6t-1.2.75a12.478,12.478,0,0,0-1.091.841,3.889,3.889,0,0,0-.763.856H143.7V54.7Z" fill="#fff"></path></g><g id="Group_734" data-name="Group 734"><g id="Group_726" data-name="Group 726"><path id="Path_153" data-name="Path 153" d="M102.417,27.721c1.416.792,3.655,1.357,5.072,2.555a24.6,24.6,0,0,1,1.65-3.863c.7-1.049,1.308-1.453,1.482-1.941.511-1.439-.407-2.595-.316-4.478.261-5.346,3.435-6.136,3.28-6.463-.213-.448-4.864.556-8.68,3.982a10.471,10.471,0,0,0-3.7,7.255c-.015.914-.052,2.247,1.213,2.953" fill="#fff"></path></g><g id="Group_727" data-name="Group 727"><path id="Path_154" data-name="Path 154" d="M112.311,24.974c-.238-.094-1.451.907-2.42,2.721a31.038,31.038,0,0,0-1.282,3.367,15.2,15.2,0,0,1,2.4,2.793,27.57,27.57,0,0,1,2.343,4.785c.474-.638,1.66-1.52,1.964-2.611a7.022,7.022,0,0,0-.627-5.065c-1.11-2.34-1.537-2.307-2.16-4.463-.244-.843.034-1.429-.217-1.527" fill="#fff"></path></g><g id="Group_728" data-name="Group 728"><path id="Path_155" data-name="Path 155" d="M100.8,33.987a7.593,7.593,0,0,0,1.369,3.284,3.95,3.95,0,0,0,2.588,1.875,34.831,34.831,0,0,1,7.023,2.523,7.063,7.063,0,0,1,.75-1.912,19.678,19.678,0,0,0-4.468-7.413,16.256,16.256,0,0,0-5.884-3.264c-1.082-.384-1.409-1.071-1.67-.918-.3.174.308,1.169.259,2.313a14.743,14.743,0,0,0,.033,3.512" fill="#fff"></path></g><g id="Group_729" data-name="Group 729"><path id="Path_156" data-name="Path 156" d="M113.811,40.034a5.546,5.546,0,0,0-.843,2.332,12.021,12.021,0,0,1,2.583,2.936,12.352,12.352,0,0,1,1.737,4.436c.7-.923,1.64-.837,2.506-1.881,1.331-1.6.951-3.809.369-5.164a43.52,43.52,0,0,0-2.612-4.385c-.566-.991-.57-2-.925-2-.219,0-.281.5-.78,1.385-.545.97-1.365,1.376-2.035,2.34" fill="#fff"></path></g><g id="Group_730" data-name="Group 730"><path id="Path_157" data-name="Path 157" d="M107.145,49.856a27.118,27.118,0,0,0,5.145,1.774,11.913,11.913,0,0,1,3.106,1.116,8.721,8.721,0,0,1,.866-1.952,13.236,13.236,0,0,0-2.159-5.558c-2.335-3.176-6.736-4.152-9.967-5.044-1.985-.549-1.924-.916-2.09-.73-.248.278.567.894.965,2.509a17.461,17.461,0,0,0,1.258,4.385,7.291,7.291,0,0,0,2.876,3.5" fill="#fff"></path></g><g id="Group_731" data-name="Group 731"><path id="Path_158" data-name="Path 158" d="M122.608,49.653c-.286-.882-.555-2.309-.91-2.324-.248-.01-.11.436-.828,1.237a9.464,9.464,0,0,1-2.522,1.8c-.678.431-1.279,1.211-1.9,3.008a12.332,12.332,0,0,1,3.029,3.25,11.524,11.524,0,0,1,1.482,5.932c-.126,2.691-.449,2.962-.319,3.106a16.751,16.751,0,0,0,3.589-9.327c.132-2.988-.946-4.6-1.621-6.678" fill="#fff"></path></g><g id="Group_732" data-name="Group 732"><path id="Path_159" data-name="Path 159" d="M115.107,53.96c-1.826-1.124-4.159-1.517-5.861-2.019-1.41-.415-3.041-1.152-3.17-.959-.208.313,1.3,1.329,2.5,3.305a15.215,15.215,0,0,1,2.451,9.372c-.4,6.77-6.152,10.857-5.851,11.123s5.008-.882,8.2-2.578a14.612,14.612,0,0,0,4.668-3.5c.682-.985,2.534-3.828,1.27-9.068a8.667,8.667,0,0,0-4.207-5.679" fill="#fff"></path></g><g id="Group_733" data-name="Group 733"><path id="Path_160" data-name="Path 160" d="M101.21,62.332a8.489,8.489,0,0,1,.469,4.384c-.043.3-.2.449-.246-.1a11.2,11.2,0,0,0-1.891-5.082c-.159-.333-.334-.169-.372-.074-.4,1.031-1.575,1.542-1.8,3.47a14.05,14.05,0,0,0-.074,3.538,17.576,17.576,0,0,0,1,4.29c.142.366.217.482.539.534a4.388,4.388,0,0,1,2.041,1.057c.211.208.515.347.754.061a9.171,9.171,0,0,0,1.622-5.647,13.742,13.742,0,0,0-1.745-6.954c-.236-.39-.649-.337-.3.524" fill="#fff"></path></g></g></g></svg>