<svg xmlns="http://www.w3.org/2000/svg" width="59.832" height="61.39" viewBox="0 0 59.832 61.39"><g id="Group_916" data-name="Group 916" transform="translate(-180.667 -13.431)"><g id="Group_736" data-name="Group 736"><path id="Path_161" data-name="Path 161" d="M217.249,71.112a23.087,23.087,0,0,1-9.443-2,.75.75,0,0,1,.609-1.371A21.754,21.754,0,1,0,203.038,31.4a.75.75,0,0,1-.98-1.135,23.25,23.25,0,1,1,15.191,40.85Z" fill="#fff"></path></g><g id="Group_737" data-name="Group 737"><path id="Path_162" data-name="Path 162" d="M224.248,47.577a4.206,4.206,0,0,1,2.643,1.565,4.858,4.858,0,0,1,1.013,3.117,5.032,5.032,0,0,1-.487,2.235,4.833,4.833,0,0,1-1.367,1.7,6.409,6.409,0,0,1-2.144,1.079,9.819,9.819,0,0,1-2.84.381,9.1,9.1,0,0,1-3.537-.644,6.583,6.583,0,0,1-2.565-1.881l2-2.5a4.789,4.789,0,0,0,1.631,1.341,5.277,5.277,0,0,0,2.367.473,4.039,4.039,0,0,0,2.446-.63,2.279,2.279,0,0,0,.841-1.947,2.483,2.483,0,0,0-.973-2.1,4.864,4.864,0,0,0-2.945-.737h-.737V46.394h.815a3.92,3.92,0,0,0,2.525-.723,2.281,2.281,0,0,0,.894-1.855,1.841,1.841,0,0,0-.736-1.6,3.228,3.228,0,0,0-1.92-.525,4.266,4.266,0,0,0-2.169.551,4.341,4.341,0,0,0-1.565,1.552l-2.209-2.472a4.243,4.243,0,0,1,1.051-1.091,7.344,7.344,0,0,1,1.486-.842,9.143,9.143,0,0,1,1.8-.552,9.992,9.992,0,0,1,2-.2,8.239,8.239,0,0,1,2.446.342,6.143,6.143,0,0,1,1.907.946,4.079,4.079,0,0,1,1.67,3.366,4.729,4.729,0,0,1-.236,1.5,4.335,4.335,0,0,1-.684,1.289,4.2,4.2,0,0,1-1.065.973A3.7,3.7,0,0,1,224.248,47.577Z" fill="#fff"></path></g><g id="Group_746" data-name="Group 746"><g id="Group_738" data-name="Group 738"><path id="Path_163" data-name="Path 163" d="M185.862,27.721c1.416.792,3.655,1.357,5.072,2.555a24.6,24.6,0,0,1,1.65-3.863c.7-1.049,1.309-1.453,1.482-1.941.511-1.439-.407-2.595-.316-4.478.261-5.346,3.436-6.136,3.28-6.463-.213-.448-4.864.556-8.68,3.982a10.471,10.471,0,0,0-3.7,7.255c-.015.914-.052,2.247,1.213,2.953" fill="#fff"></path></g><g id="Group_739" data-name="Group 739"><path id="Path_164" data-name="Path 164" d="M195.756,24.974c-.238-.094-1.451.907-2.42,2.721a31.039,31.039,0,0,0-1.282,3.367,15.154,15.154,0,0,1,2.4,2.793A27.66,27.66,0,0,1,196.8,38.64c.473-.638,1.659-1.52,1.963-2.611a7.022,7.022,0,0,0-.627-5.065c-1.109-2.34-1.537-2.307-2.16-4.463-.244-.843.034-1.429-.217-1.527" fill="#fff"></path></g><g id="Group_740" data-name="Group 740"><path id="Path_165" data-name="Path 165" d="M184.244,33.987a7.593,7.593,0,0,0,1.369,3.284,3.95,3.95,0,0,0,2.588,1.875,34.831,34.831,0,0,1,7.023,2.523,7.063,7.063,0,0,1,.75-1.912,19.678,19.678,0,0,0-4.468-7.413,16.256,16.256,0,0,0-5.884-3.264c-1.082-.384-1.408-1.071-1.67-.918-.3.174.308,1.169.259,2.313a14.744,14.744,0,0,0,.033,3.512" fill="#fff"></path></g><g id="Group_741" data-name="Group 741"><path id="Path_166" data-name="Path 166" d="M197.256,40.034a5.546,5.546,0,0,0-.843,2.332A12.02,12.02,0,0,1,199,45.3a12.374,12.374,0,0,1,1.738,4.436c.7-.923,1.639-.837,2.505-1.881,1.331-1.6.952-3.809.369-5.164A43.517,43.517,0,0,0,201,38.308c-.566-.991-.57-2-.925-2-.219,0-.281.5-.78,1.385-.545.97-1.365,1.376-2.035,2.34" fill="#fff"></path></g><g id="Group_742" data-name="Group 742"><path id="Path_167" data-name="Path 167" d="M190.59,49.856a27.119,27.119,0,0,0,5.145,1.774,11.913,11.913,0,0,1,3.106,1.116,8.721,8.721,0,0,1,.866-1.952,13.236,13.236,0,0,0-2.159-5.558c-2.335-3.176-6.736-4.152-9.967-5.044-1.985-.549-1.924-.916-2.09-.73-.247.278.567.894.965,2.509a17.461,17.461,0,0,0,1.258,4.385,7.291,7.291,0,0,0,2.876,3.5" fill="#fff"></path></g><g id="Group_743" data-name="Group 743"><path id="Path_168" data-name="Path 168" d="M206.054,49.653c-.287-.882-.556-2.309-.911-2.324-.248-.01-.109.436-.828,1.237a9.464,9.464,0,0,1-2.522,1.8c-.678.431-1.279,1.211-1.9,3.008a12.332,12.332,0,0,1,3.029,3.25,11.524,11.524,0,0,1,1.482,5.932c-.126,2.691-.449,2.962-.319,3.106a16.751,16.751,0,0,0,3.589-9.327c.132-2.988-.946-4.6-1.62-6.678" fill="#fff"></path></g><g id="Group_744" data-name="Group 744"><path id="Path_169" data-name="Path 169" d="M198.552,53.96c-1.826-1.124-4.159-1.517-5.861-2.019-1.41-.415-3.041-1.152-3.17-.959-.208.313,1.3,1.329,2.5,3.305a15.215,15.215,0,0,1,2.451,9.372c-.4,6.77-6.152,10.857-5.851,11.123s5.008-.882,8.2-2.578a14.612,14.612,0,0,0,4.668-3.5c.682-.985,2.534-3.828,1.27-9.068a8.663,8.663,0,0,0-4.207-5.679" fill="#fff"></path></g><g id="Group_745" data-name="Group 745"><path id="Path_170" data-name="Path 170" d="M184.655,62.332a8.49,8.49,0,0,1,.469,4.384c-.043.3-.2.449-.246-.1a11.189,11.189,0,0,0-1.891-5.082c-.159-.333-.334-.169-.372-.074-.4,1.031-1.575,1.542-1.8,3.47a14.1,14.1,0,0,0-.074,3.538,17.576,17.576,0,0,0,1,4.29c.142.366.217.482.539.534a4.388,4.388,0,0,1,2.041,1.057c.212.208.515.347.754.061a9.165,9.165,0,0,0,1.622-5.647,13.742,13.742,0,0,0-1.745-6.954c-.236-.39-.649-.337-.3.524" fill="#fff"></path></g></g></g></svg>