<svg xmlns="http://www.w3.org/2000/svg" width="59.832" height="61.39" viewBox="0 0 59.832 61.39"><g id="Group_915" data-name="Group 915" transform="translate(-263.106 -13.431)"><g id="Group_748" data-name="Group 748"><path id="Path_171" data-name="Path 171" d="M299.688,71.112a23.1,23.1,0,0,1-9.444-2,.75.75,0,1,1,.61-1.371A21.754,21.754,0,1,0,285.477,31.4a.75.75,0,0,1-.981-1.135,23.25,23.25,0,1,1,15.192,40.85Z" fill="#fff"></path></g><g id="Group_749" data-name="Group 749"><path id="Path_172" data-name="Path 172" d="M303.957,57.124V53.205h-7.68V50.076l8.811-11.309h2.393V50.05H309.8v3.155h-2.314v3.919ZM299.8,50.05h4.55V44.106Z" fill="#fff"></path></g><g id="Group_758" data-name="Group 758"><g id="Group_750" data-name="Group 750"><path id="Path_173" data-name="Path 173" d="M268.3,27.721c1.417.792,3.655,1.357,5.073,2.555a24.6,24.6,0,0,1,1.65-3.863c.7-1.049,1.308-1.453,1.482-1.941.511-1.439-.408-2.595-.317-4.478.261-5.346,3.436-6.136,3.281-6.463-.213-.448-4.865.556-8.681,3.982a10.474,10.474,0,0,0-3.7,7.255c-.015.914-.053,2.247,1.212,2.953" fill="#fff"></path></g><g id="Group_751" data-name="Group 751"><path id="Path_174" data-name="Path 174" d="M278.2,24.974c-.239-.094-1.452.907-2.42,2.721a30.829,30.829,0,0,0-1.282,3.367,15.239,15.239,0,0,1,2.4,2.793,27.568,27.568,0,0,1,2.343,4.785c.474-.638,1.66-1.52,1.964-2.611a7.033,7.033,0,0,0-.627-5.065c-1.11-2.34-1.538-2.307-2.161-4.463-.244-.843.035-1.429-.216-1.527" fill="#fff"></path></g><g id="Group_752" data-name="Group 752"><path id="Path_175" data-name="Path 175" d="M266.682,33.987a7.606,7.606,0,0,0,1.37,3.284,3.946,3.946,0,0,0,2.587,1.875,34.856,34.856,0,0,1,7.024,2.523,7.063,7.063,0,0,1,.75-1.912,19.67,19.67,0,0,0-4.469-7.413,16.251,16.251,0,0,0-5.883-3.264c-1.082-.384-1.409-1.071-1.671-.918-.3.174.308,1.169.26,2.313a14.788,14.788,0,0,0,.032,3.512" fill="#fff"></path></g><g id="Group_753" data-name="Group 753"><path id="Path_176" data-name="Path 176" d="M279.694,40.034a5.555,5.555,0,0,0-.842,2.332,12.021,12.021,0,0,1,2.583,2.936,12.389,12.389,0,0,1,1.737,4.436c.7-.923,1.639-.837,2.505-1.881,1.332-1.6.952-3.809.37-5.164a43.692,43.692,0,0,0-2.613-4.385c-.565-.991-.57-2-.925-2-.218,0-.28.5-.779,1.385-.545.97-1.365,1.376-2.036,2.34" fill="#fff"></path></g><g id="Group_754" data-name="Group 754"><path id="Path_177" data-name="Path 177" d="M273.029,49.856a27.094,27.094,0,0,0,5.145,1.774,11.926,11.926,0,0,1,3.106,1.116,8.676,8.676,0,0,1,.866-1.952,13.241,13.241,0,0,0-2.16-5.558c-2.334-3.176-6.736-4.152-9.966-5.044-1.986-.549-1.925-.916-2.09-.73-.248.278.567.894.965,2.509a17.46,17.46,0,0,0,1.258,4.385,7.285,7.285,0,0,0,2.876,3.5" fill="#fff"></path></g><g id="Group_755" data-name="Group 755"><path id="Path_178" data-name="Path 178" d="M288.492,49.653c-.286-.882-.555-2.309-.911-2.324-.247-.01-.109.436-.827,1.237a9.456,9.456,0,0,1-2.523,1.8c-.678.431-1.278,1.211-1.9,3.008a12.349,12.349,0,0,1,3.029,3.25,11.524,11.524,0,0,1,1.482,5.932c-.126,2.691-.45,2.962-.319,3.106a16.758,16.758,0,0,0,3.589-9.327c.132-2.988-.946-4.6-1.621-6.678" fill="#fff"></path></g><g id="Group_756" data-name="Group 756"><path id="Path_179" data-name="Path 179" d="M280.991,53.96c-1.826-1.124-4.159-1.517-5.862-2.019-1.409-.415-3.04-1.152-3.169-.959-.208.313,1.3,1.329,2.5,3.305a15.222,15.222,0,0,1,2.451,9.372c-.4,6.77-6.153,10.857-5.851,11.123s5.008-.882,8.2-2.578a14.612,14.612,0,0,0,4.668-3.5c.682-.985,2.533-3.828,1.269-9.068a8.661,8.661,0,0,0-4.206-5.679" fill="#fff"></path></g><g id="Group_757" data-name="Group 757"><path id="Path_180" data-name="Path 180" d="M267.093,62.332a8.479,8.479,0,0,1,.469,4.384c-.042.3-.2.449-.246-.1a11.189,11.189,0,0,0-1.891-5.082c-.159-.333-.334-.169-.371-.074-.4,1.031-1.576,1.542-1.8,3.47a14,14,0,0,0-.074,3.538,17.578,17.578,0,0,0,1,4.29c.142.366.217.482.54.534a4.385,4.385,0,0,1,2.04,1.057c.212.208.515.347.754.061a9.165,9.165,0,0,0,1.622-5.647,13.731,13.731,0,0,0-1.745-6.954c-.235-.39-.648-.337-.3.524" fill="#fff"></path></g></g></g></svg>