<svg xmlns="http://www.w3.org/2000/svg" width="59.832" height="61.39" viewBox="0 0 59.832 61.39"><g id="Group_914" data-name="Group 914" transform="translate(-426.998 -13.431)"><g id="Group_772" data-name="Group 772"><path id="Path_191" data-name="Path 191" d="M463.58,71.112a23.09,23.09,0,0,1-9.443-2,.75.75,0,0,1,.609-1.371A21.754,21.754,0,1,0,449.369,31.4a.75.75,0,0,1-.98-1.135,23.25,23.25,0,1,1,15.191,40.85Z" fill="#fff"></path></g><g id="Group_773" data-name="Group 773"><path id="Path_192" data-name="Path 192" d="M474.1,51.06a6.2,6.2,0,0,1-.526,2.55,6.487,6.487,0,0,1-1.446,2.066,6.7,6.7,0,0,1-2.17,1.38,7.193,7.193,0,0,1-2.7.5,6.862,6.862,0,0,1-2.854-.578,5.9,5.9,0,0,1-2.169-1.684,7.745,7.745,0,0,1-1.368-2.695,12.714,12.714,0,0,1-.472-3.617,18.337,18.337,0,0,1,.5-4.51,9.772,9.772,0,0,1,1.446-3.287,6.342,6.342,0,0,1,2.288-2.013,6.515,6.515,0,0,1,3-.684,6.94,6.94,0,0,1,5.759,2.947l-2.025,2.209a4.463,4.463,0,0,0-1.631-1.552,4.391,4.391,0,0,0-2.156-.553,3.346,3.346,0,0,0-2.814,1.395,6.675,6.675,0,0,0-1.1,3.944,3.966,3.966,0,0,1,1.565-1.5,4.842,4.842,0,0,1,2.354-.552,6.9,6.9,0,0,1,2.564.473,6.388,6.388,0,0,1,2.078,1.315,6.09,6.09,0,0,1,1.88,4.445Zm-6.812,3.524a3.253,3.253,0,0,0,1.316-.276,3.439,3.439,0,0,0,1.1-.763,3.672,3.672,0,0,0,.75-1.131,3.4,3.4,0,0,0,.275-1.354,3.224,3.224,0,0,0-.275-1.329,3.607,3.607,0,0,0-.75-1.09,3.416,3.416,0,0,0-1.092-.738,3.376,3.376,0,0,0-1.328-.262,3.48,3.48,0,0,0-1.341.262,3.4,3.4,0,0,0-2.1,3.157,3.422,3.422,0,0,0,.276,1.354,3.555,3.555,0,0,0,.75,1.118,3.821,3.821,0,0,0,1.091.763A3.11,3.11,0,0,0,467.286,54.584Z" fill="#fff"></path></g><g id="Group_782" data-name="Group 782"><g id="Group_774" data-name="Group 774"><path id="Path_193" data-name="Path 193" d="M432.193,27.721c1.416.792,3.655,1.357,5.072,2.555a24.614,24.614,0,0,1,1.651-3.863c.7-1.049,1.308-1.453,1.481-1.941.512-1.439-.407-2.595-.316-4.478.261-5.346,3.436-6.136,3.281-6.463-.214-.448-4.865.556-8.681,3.982a10.475,10.475,0,0,0-3.7,7.255c-.015.914-.052,2.247,1.213,2.953" fill="#fff"></path></g><g id="Group_775" data-name="Group 775"><path id="Path_194" data-name="Path 194" d="M442.088,24.974c-.239-.094-1.452.907-2.42,2.721a30.836,30.836,0,0,0-1.282,3.367,15.239,15.239,0,0,1,2.4,2.793,27.716,27.716,0,0,1,2.343,4.785c.473-.638,1.659-1.52,1.964-2.611a7.033,7.033,0,0,0-.627-5.065c-1.11-2.34-1.538-2.307-2.161-4.463-.244-.843.034-1.429-.216-1.527" fill="#fff"></path></g><g id="Group_776" data-name="Group 776"><path id="Path_195" data-name="Path 195" d="M430.575,33.987a7.593,7.593,0,0,0,1.37,3.284,3.945,3.945,0,0,0,2.587,1.875,34.831,34.831,0,0,1,7.023,2.523,7.034,7.034,0,0,1,.751-1.912,19.684,19.684,0,0,0-4.469-7.413,16.248,16.248,0,0,0-5.884-3.264c-1.081-.384-1.408-1.071-1.67-.918-.3.174.308,1.169.259,2.313a14.8,14.8,0,0,0,.033,3.512" fill="#fff"></path></g><g id="Group_777" data-name="Group 777"><path id="Path_196" data-name="Path 196" d="M443.587,40.034a5.555,5.555,0,0,0-.842,2.332,12,12,0,0,1,2.582,2.936,12.374,12.374,0,0,1,1.738,4.436c.7-.923,1.639-.837,2.505-1.881,1.332-1.6.952-3.809.369-5.164a43.52,43.52,0,0,0-2.612-4.385c-.565-.991-.57-2-.925-2-.219,0-.281.5-.779,1.385-.545.97-1.366,1.376-2.036,2.34" fill="#fff"></path></g><g id="Group_778" data-name="Group 778"><path id="Path_197" data-name="Path 197" d="M436.921,49.856a27.143,27.143,0,0,0,5.145,1.774,11.9,11.9,0,0,1,3.106,1.116,8.766,8.766,0,0,1,.866-1.952,13.236,13.236,0,0,0-2.159-5.558c-2.334-3.176-6.736-4.152-9.967-5.044-1.985-.549-1.924-.916-2.089-.73-.248.278.567.894.964,2.509a17.462,17.462,0,0,0,1.259,4.385,7.282,7.282,0,0,0,2.875,3.5" fill="#fff"></path></g><g id="Group_779" data-name="Group 779"><path id="Path_198" data-name="Path 198" d="M452.385,49.653c-.287-.882-.555-2.309-.911-2.324-.248-.01-.109.436-.827,1.237a9.491,9.491,0,0,1-2.523,1.8c-.678.431-1.278,1.211-1.9,3.008a12.332,12.332,0,0,1,3.029,3.25,11.514,11.514,0,0,1,1.482,5.932c-.126,2.691-.449,2.962-.318,3.106a16.767,16.767,0,0,0,3.589-9.327c.132-2.988-.947-4.6-1.621-6.678" fill="#fff"></path></g><g id="Group_780" data-name="Group 780"><path id="Path_199" data-name="Path 199" d="M444.883,53.96c-1.826-1.124-4.159-1.517-5.861-2.019-1.409-.415-3.04-1.152-3.169-.959-.208.313,1.3,1.329,2.5,3.305a15.216,15.216,0,0,1,2.452,9.372c-.4,6.77-6.153,10.857-5.852,11.123s5.009-.882,8.2-2.578a14.612,14.612,0,0,0,4.668-3.5c.683-.985,2.534-3.828,1.27-9.068a8.663,8.663,0,0,0-4.207-5.679" fill="#fff"></path></g><g id="Group_781" data-name="Group 781"><path id="Path_200" data-name="Path 200" d="M430.986,62.332a8.489,8.489,0,0,1,.469,4.384c-.043.3-.2.449-.246-.1a11.189,11.189,0,0,0-1.891-5.082c-.159-.333-.334-.169-.371-.074-.4,1.031-1.576,1.542-1.8,3.47a14.05,14.05,0,0,0-.075,3.538,17.577,17.577,0,0,0,1,4.29c.142.366.217.482.54.534a4.39,4.39,0,0,1,2.04,1.057c.212.208.515.347.754.061a9.165,9.165,0,0,0,1.622-5.647,13.741,13.741,0,0,0-1.745-6.954c-.236-.39-.649-.337-.3.524" fill="#fff"></path></g></g></g></svg>