<svg xmlns="http://www.w3.org/2000/svg" xmlns:xlink="http://www.w3.org/1999/xlink" id="Layer_1" x="0px" y="0px" viewBox="0 0 24.9 21.7" style="enable-background:new 0 0 24.9 21.7;" xml:space="preserve">
<style type="text/css">
	.st0{fill:#4E4E4E;}
</style>
<path id="Path_121" class="st0" d="M24.8,9.6c-0.7-5.9-6-10.2-12-9.5C7.4,0.7,3.3,5.2,3.2,10.6L0.7,7C0.6,6.8,0.4,6.8,0.2,6.9  C0,7-0.1,7.3,0.1,7.5l3.3,4.8c0,0,0,0,0,0c0,0,0,0.1,0.1,0.1c0,0,0,0,0.1,0c0,0,0.1,0,0.1,0c0,0,0,0,0,0c0,0,0,0,0,0c0,0,0,0,0,0  c0,0,0,0,0,0c0,0,0,0,0,0c0,0,0.1,0,0.1,0c0,0,0,0,0.1,0c0,0,0,0,0,0l4.3-4c0.2-0.1,0.2-0.4,0-0.6c-0.1-0.2-0.4-0.2-0.6,0L4,11.2  C3.8,5.6,8.2,1,13.7,0.8S23.9,5,24.1,10.5c0.2,5.5-4.2,10.2-9.7,10.3c-2.8,0.1-5.4-1-7.4-2.9c-0.2-0.2-0.4-0.2-0.6,0  c-0.2,0.2-0.2,0.4,0,0.6c2,2,4.8,3.2,7.6,3.2c6,0,10.9-4.9,10.9-10.9C24.9,10.4,24.9,10,24.8,9.6z"></path>
</svg>