<svg xmlns="http://www.w3.org/2000/svg" width="29.111" height="31.09" viewBox="0 0 29.111 31.09">
  <g id="Group_685" data-name="Group 685" transform="translate(-115.444 -2.452)">
    <g id="Group_683" data-name="Group 683">
      <path id="Path_129" data-name="Path 129" d="M144.48,32.522l-3.96-7.92a.7.7,0,0,0-.63-.39h-5.36q.255-.315.51-.66c3.06-4.09,4.62-7.94,4.62-11.44a9.66,9.66,0,0,0-19.32,0c0,3.5,1.56,7.35,4.62,11.44q.255.345.51.66h-5.36a.7.7,0,0,0-.63.39l-3.96,7.92a.7.7,0,0,0,.63,1.02h27.7a.707.707,0,0,0,.63-1.02Zm-27.18-.39,3.25-6.5h6.09a33.236,33.236,0,0,0,2.89,2.98.727.727,0,0,0,.94.01,36.293,36.293,0,0,0,2.89-2.99h6.09l3.25,6.5Zm4.46-20.02a8.24,8.24,0,0,1,16.48,0c0,4.61-3.11,9.24-5.7,12.3a.17.17,0,0,0-.06.06c-1.03,1.21-1.95,2.14-2.48,2.65-.53-.51-1.45-1.44-2.48-2.65l-.16.14.12-.19C124.87,21.352,121.76,16.722,121.76,12.112Z" fill="#4e4e4e"/>
    </g>
    <g id="Group_684" data-name="Group 684">
      <path id="Path_130" data-name="Path 130" d="M130,8.392a3.675,3.675,0,1,0,3.67,3.67A3.672,3.672,0,0,0,130,8.392Zm0,5.93a2.26,2.26,0,1,1,2.26-2.26A2.258,2.258,0,0,1,130,14.322Z" fill="#4e4e4e"/>
    </g>
  </g>
</svg>
