<svg xmlns="http://www.w3.org/2000/svg" width="36" height="36" viewBox="0 0 36 36"><g id="Group_838" data-name="Group 838" transform="translate(0 -0.022)"><g id="Group_2" data-name="Group 2" transform="translate(0 0)"><circle id="Ellipse_17" data-name="Ellipse 17" cx="18" cy="18" r="18" transform="translate(0 0.022)" fill="#fca146"></circle></g><g id="Group_3" data-name="Group 3" transform="translate(13.286 11.065)"><path id="Path_32" data-name="Path 32" d="M-314.506,9.257v2.678h-8.985V9.257h3.142V2.552a2.386,2.386,0,0,1-.631.542,8.521,8.521,0,0,1-.94.52,6.592,6.592,0,0,1-1.051.4,3.582,3.582,0,0,1-.963.155V1.4a2.517,2.517,0,0,0,.974-.254,8.243,8.243,0,0,0,1.129-.609,9.308,9.308,0,0,0,.963-.7,2.358,2.358,0,0,0,.52-.542h3.032V9.257Z" transform="translate(323.933 0.701)" fill="#fff"></path></g></g></svg>