<svg xmlns="http://www.w3.org/2000/svg" id="Group_667" data-name="Group 667" width="16.964" height="23.903" viewBox="0 0 16.964 23.903"><path id="Path_116" data-name="Path 116" d="M80.651,9.981a.386.386,0,0,0-.082-.125L74.4,3.689a.383.383,0,0,0-.272-.113H64.1a.386.386,0,0,0-.386.385V27.093a.386.386,0,0,0,.386.386H80.3a.386.386,0,0,0,.386-.386V10.13A.377.377,0,0,0,80.651,9.981ZM74.513,4.893l4.852,4.852H74.513ZM64.489,26.707V4.347h9.252V10.13a.386.386,0,0,0,.386.385H79.91V26.707Z" transform="translate(-63.718 -3.576)" fill="#4e4e4e"></path><path id="Path_117" data-name="Path 117" d="M75.716,26.943H68.777a.386.386,0,0,0,0,.771h6.939a.386.386,0,1,0,0-.771Z" transform="translate(-64.536 -7.667)" fill="#4e4e4e"></path><path id="Path_118" data-name="Path 118" d="M68.777,13.694h3.084a.386.386,0,0,0,0-.771H68.777a.386.386,0,0,0,0,.771Z" transform="translate(-64.536 -5.213)" fill="#4e4e4e"></path><path id="Path_119" data-name="Path 119" d="M77.259,22.27H68.777a.386.386,0,0,0,0,.771h8.482a.386.386,0,0,0,0-.771Z" transform="translate(-64.536 -6.849)" fill="#4e4e4e"></path><path id="Path_120" data-name="Path 120" d="M77.259,17.6H68.777a.386.386,0,0,0,0,.771h8.482a.386.386,0,0,0,0-.771Z" transform="translate(-64.536 -6.031)" fill="#4e4e4e"></path></svg>