<svg xmlns="http://www.w3.org/2000/svg" id="Group_665" data-name="Group 665" width="24.954" height="18.514" viewBox="0 0 24.954 18.514"><path id="Path_110" data-name="Path 110" d="M138.219,10.062h-4.8l-2.535-3.074a.4.4,0,0,0-.311-.146h-6.439a.4.4,0,0,0-.311.146l-2.536,3.074h-4.8a1.612,1.612,0,0,0-1.609,1.61V23.746a1.612,1.612,0,0,0,1.609,1.61h21.735a1.612,1.612,0,0,0,1.609-1.61V11.672A1.612,1.612,0,0,0,138.219,10.062Zm.8,13.685a.805.805,0,0,1-.8.805H116.484a.806.806,0,0,1-.8-.805V11.672a.806.806,0,0,1,.8-.805h4.991a.4.4,0,0,0,.311-.147l2.536-3.073h6.06l2.536,3.073a.4.4,0,0,0,.31.147h4.992a.805.805,0,0,1,.8.805Z" transform="translate(-114.875 -6.842)" fill="#4e4e4e"></path><path id="Path_111" data-name="Path 111" d="M128.719,11.721a6.037,6.037,0,1,0,6.038,6.038A6.044,6.044,0,0,0,128.719,11.721Zm0,11.269a5.232,5.232,0,1,1,5.232-5.232A5.238,5.238,0,0,1,128.719,22.99Z" transform="translate(-116.242 -7.696)" fill="#4e4e4e"></path><path id="Path_112" data-name="Path 112" d="M129.4,15.624a2.817,2.817,0,1,0,2.817,2.818A2.82,2.82,0,0,0,129.4,15.624Zm0,4.83a2.012,2.012,0,1,1,2.013-2.012A2.015,2.015,0,0,1,129.4,20.454Z" transform="translate(-116.925 -8.38)" fill="#4e4e4e"></path></svg>