<svg xmlns="http://www.w3.org/2000/svg" id="Group_666" data-name="Group 666" width="23.598" height="20.553" viewBox="0 0 23.598 20.553"><path id="Path_113" data-name="Path 113" d="M195.447,18.426a.38.38,0,0,0-.36-.031l-4.8,2.056V18.745a1.143,1.143,0,0,0-1.142-1.143H174.684a1.143,1.143,0,0,0-1.142,1.143v8.373a1.143,1.143,0,0,0,1.142,1.142h14.464a1.143,1.143,0,0,0,1.142-1.142V25.411l4.8,2.057a.366.366,0,0,0,.15.031.38.38,0,0,0,.38-.381V18.745A.383.383,0,0,0,195.447,18.426Zm-6.3,9.072H174.684a.381.381,0,0,1-.38-.381V18.745a.381.381,0,0,1,.38-.381h14.464a.381.381,0,0,1,.38.381V21.03h0v3.8h0v2.285A.381.381,0,0,1,189.148,27.5Zm5.708-.958-4.567-1.958v-3.3l4.567-1.958Z" transform="translate(-172.02 -7.706)" fill="#4e4e4e"></path><path id="Path_114" data-name="Path 114" d="M180.07,9.792a4.186,4.186,0,1,0-4.186,4.187A4.191,4.191,0,0,0,180.07,9.792Zm-7.611,0a3.425,3.425,0,1,1,3.425,3.426A3.429,3.429,0,0,1,172.458,9.792Z" transform="translate(-171.697 -5.606)" fill="#4e4e4e"></path><path id="Path_115" data-name="Path 115" d="M187.28,14.626a2.664,2.664,0,1,0-2.664-2.664A2.667,2.667,0,0,0,187.28,14.626Zm0-4.568a1.9,1.9,0,1,1-1.9,1.9A1.905,1.905,0,0,1,187.28,10.058Z" transform="translate(-173.959 -6.252)" fill="#4e4e4e"></path></svg>